<svg xmlns="http://www.w3.org/2000/svg" viewBox="0 0 128 100" x="0px" y="0px">
  <path d="M98.13184,79.09375a6.016,6.016,0,0,0,4.37988-6.5957L99.23535,48.249a2.0004,2.0004,0,0,0-3.96484.53516l3.27734,24.25a2.00588,2.00588,0,0,1-1.46,2.19824L66,83.63428V82.59766l29.97852-8.10157a2.001,2.001,0,0,0,1.46093-2.19824L93.82129,45.51758a2.00062,2.00062,0,0,0-2.55859-1.648L64,52.06787,36.73779,43.86963a1.99993,1.99993,0,0,0-2.5581,1.648L30.561,72.29785a1.99939,1.99939,0,0,0,1.46,2.19824L62,82.59766v1.03662L30.9126,75.23242a2.00639,2.00639,0,0,1-1.46045-2.19922l3.27392-24.22363a2,2,0,1,0-3.96386-.53613L25.48828,72.49805a6.01569,6.01569,0,0,0,4.38037,6.5957l27.40406,7.406L36.07129,93.98242l3.9165-4.78711a2,2,0,0,0,.06348-2.45019L36.61182,82.0625a1.99972,1.99972,0,1,0-3.22364,2.36719l2.52149,3.43359-5.1958,6.35156a2.99982,2.99982,0,0,0,3.32031,4.72852L64,88.36719,94.32227,99.06934a2.99973,2.99973,0,0,0,3.43164-4.584L92.9043,87.75879l1.86914-3.58887a1.99964,1.99964,0,0,0-3.54688-1.84765l-2.43945,4.68261a1.99883,1.99883,0,0,0,.15137,2.09375l3.70312,5.13575L70.72723,86.49982Zm-4.89161-8.001L66,78.45459V55.643l24.1709-7.26752Zm-58.48,0,3.06934-22.71728L62,55.64319v22.8114Zm36.46143-9.01611a2.00049,2.00049,0,0,1,1.3125-2.50586l11.52246-3.60107A2.00025,2.00025,0,1,1,85.25,59.78809L73.72754,63.38916a1.9993,1.9993,0,0,1-2.50586-1.3125Zm16.68359,2.15576a1.99737,1.99737,0,0,1-1.3125,2.50586L73.333,70.88184a2.00025,2.00025,0,1,1-1.19336-3.81836l13.25976-4.14356A2.0045,2.0045,0,0,1,87.90527,64.23242ZM41.5542,57.31982a1.99807,1.99807,0,0,1,2.50586-1.3125l11.522,3.60059a2.00025,2.00025,0,1,1-1.19336,3.81836l-11.522-3.60059A2.00088,2.00088,0,0,1,41.5542,57.31982Zm15.82666,11.689A1.99846,1.99846,0,0,1,54.78369,70.919L41.523,66.77539A2.00025,2.00025,0,0,1,42.71631,62.957l13.26074,4.14356A2.001,2.001,0,0,1,57.38086,69.00879Zm6.74609-19.6084a10.42182,10.42182,0,0,0,10.13672-7.91553,2.00093,2.00093,0,0,0-2.44238-2.41894,6.188,6.188,0,0,1-1.54981.18994,6.45678,6.45678,0,0,1-6.44921-6.44922,6.17025,6.17025,0,0,1,.18994-1.54834,2.00034,2.00034,0,0,0-2.41846-2.44336,10.4485,10.4485,0,0,0,2.5332,20.58545Zm-4.228-15.32519a10.47019,10.47019,0,0,0,9.104,9.104,6.45337,6.45337,0,1,1-9.104-9.104Z"/>
</svg>
